<svg overflow="visible" width="15.0588" height="14.6873" viewBox="0 0 15.0588 14.6873" fill="none" xmlns="http://www.w3.org/2000/svg">
<g id="Group">
<path id="Vector" fill-rule="evenodd" clip-rule="evenodd" d="M7.52941 0C3.36941 0 2.98023e-08 3.36941 2.98023e-08 7.52941C2.98023e-08 10.8612 2.1553 13.6753 5.14824 14.6729C5.52471 14.7388 5.66588 14.5129 5.66588 14.3153C5.66588 14.1365 5.65647 13.5435 5.65647 12.9129C3.76471 13.2612 3.2753 12.4518 3.12471 12.0282C3.04 11.8118 2.67294 11.1435 2.35294 10.9647C2.08941 10.8235 1.71294 10.4753 2.34353 10.4659C2.93647 10.4565 3.36 11.0118 3.50118 11.2376C4.17883 12.3765 5.26118 12.0565 5.69412 11.8588C5.76 11.3694 5.95765 11.04 6.17412 10.8518C4.49883 10.6635 2.74824 10.0141 2.74824 7.13412C2.74824 6.31529 3.04 5.63765 3.52 5.11059C3.44471 4.92235 3.18118 4.15059 3.5953 3.11529C3.5953 3.11529 4.22588 2.91765 5.66588 3.88706C6.26824 3.71765 6.90824 3.63294 7.54824 3.63294C8.18824 3.63294 8.82824 3.71765 9.43056 3.88706C10.8706 2.90824 11.5011 3.11529 11.5011 3.11529C11.9153 4.15059 11.6517 4.92235 11.5764 5.11059C12.0564 5.63765 12.3482 6.30588 12.3482 7.13412C12.3482 10.0235 10.5882 10.6635 8.91291 10.8518C9.18586 11.0871 9.42115 11.5388 9.42115 12.2447C9.42115 13.2518 9.41174 14.0612 9.41174 14.3153C9.41174 14.5129 9.55291 14.7482 9.92939 14.6729C12.9035 13.6753 15.0588 10.8518 15.0588 7.52941C15.0588 3.36941 11.6894 0 7.52941 0Z" fill="white"/>
</g>
</svg>
