<svg overflow="visible" width="255.797" height="64" viewBox="0 0 255.797 64" fill="none" xmlns="http://www.w3.org/2000/svg">
<g id="logo">
<mask id="path-1-inside-1_0_4" fill="white">
<path d="M0 0H255.797V64H0V0Z"/>
</mask>
<path d="M255.797 0H254.797V64H255.797H256.797V0H255.797Z" fill="#202020" mask="url(#path-1-inside-1_0_4)"/>
<g id="foxglove">
<path d="M92.3446 38.0766H94.6576C94.6439 37.4112 94.6439 36.732 94.6439 35.821V33.2519H95.7574C96.8712 33.2519 99.4032 33.2519 100.568 33.2669V31.3643H94.6439V27.8638H96.8203C98.594 27.8638 100.137 27.8638 101.335 27.879V25.9234H92.3448C92.3579 26.5292 92.3579 27.1961 92.3579 28.0204V35.821C92.3579 36.7397 92.3579 37.4249 92.3446 38.0766Z" fill="white"/>
<path d="M108.599 25.6771C104.03 25.6771 102.638 27.0876 102.638 31.7182V32.2813C102.638 36.9118 104.03 38.3222 108.599 38.3222C113.167 38.3222 114.559 36.9118 114.559 32.2813V31.7182C114.559 27.0876 113.167 25.6771 108.599 25.6771ZM112.204 32.0703C112.204 35.4265 111.462 36.2947 108.599 36.2947C105.735 36.2947 104.993 35.4265 104.993 32.0703V31.9291C104.993 28.627 105.769 27.7222 108.599 27.7222C111.462 27.7222 112.204 28.5887 112.204 31.9291V32.0703Z" fill="white"/>
<path d="M108.599 25.6771C104.03 25.6771 102.638 27.0876 102.638 31.7182V32.2813C102.638 36.9118 104.03 38.3222 108.599 38.3222C113.167 38.3222 114.559 36.9118 114.559 32.2813V31.7182C114.559 27.0876 113.167 25.6771 108.599 25.6771ZM112.204 32.0703C112.204 35.4265 111.462 36.2947 108.599 36.2947C105.735 36.2947 104.993 35.4265 104.993 32.0703V31.9291C104.993 28.627 105.769 27.7222 108.599 27.7222C111.462 27.7222 112.204 28.5887 112.204 31.9291V32.0703Z" fill="white"/>
<path d="M124.496 38.0766H127.333C126.363 36.7608 124.989 34.7823 123.145 32.0452L123.08 31.9483L123.144 31.8508C124.474 29.8252 125.978 27.5495 127.147 25.9234H124.428L122.806 28.5187L122.51 29.0409C122.144 29.6889 121.764 30.3588 121.379 30.9988L121.227 31.2513L121.082 30.9947C120.76 30.4254 120.428 29.86 120.107 29.3133C119.942 29.0315 119.779 28.7529 119.619 28.4785L117.984 25.9234H115.153C116.454 27.7925 118.347 30.6993 119.128 31.9044L119.19 32.0001L119.128 32.0958C118 33.8283 116.371 36.2642 115.071 38.0766H117.774L119.396 35.4813L119.672 35.0087C120.086 34.3011 120.514 33.5693 120.927 32.8783L121.074 32.632L121.569 33.4571C121.988 34.1559 122.421 34.8785 122.858 35.5685L124.496 38.0766Z" fill="white"/>
<path d="M133.707 25.6769C129.274 25.6769 127.851 27.145 127.851 31.7183V32.2817C127.851 36.8552 129.278 38.3231 133.725 38.3231C138.333 38.3231 139.459 37.3482 139.459 33.3559C139.459 32.9578 139.459 32.3771 139.472 31.8397H133.026V33.5336H137.26V33.7256C137.268 34.6103 137.185 35.2892 136.761 35.722C136.248 36.2451 135.278 36.3474 133.777 36.3474C130.941 36.3474 130.207 35.468 130.207 32.0704V31.9296C130.207 28.6271 130.978 27.723 133.794 27.723C136.401 27.723 137.141 28.1552 137.188 29.7977L139.442 29.7514C139.436 28.3387 139.166 27.433 138.573 26.8281C137.783 26.0212 136.328 25.6769 133.707 25.6769Z" fill="white"/>
<path d="M146.689 36.0314H143.832V27.9855C143.832 27.1556 143.832 26.5349 143.846 25.923H141.534C141.546 26.5384 141.546 27.18 141.546 28.0378V35.7856C141.546 36.7236 141.546 37.4227 141.534 38.0765H150.108V36.0157C148.806 36.0314 147.865 36.0314 146.689 36.0314Z" fill="white"/>
<path d="M146.689 36.0314H143.832V27.9855C143.832 27.1556 143.832 26.5349 143.846 25.923H141.534C141.546 26.5384 141.546 27.18 141.546 28.0378V35.7856C141.546 36.7236 141.546 37.4227 141.534 38.0765H150.108V36.0157C148.806 36.0314 147.865 36.0314 146.689 36.0314Z" fill="white"/>
<path d="M157.181 25.6771C152.613 25.6771 151.221 27.0876 151.221 31.7182V32.2813C151.221 36.9118 152.613 38.3222 157.181 38.3222C161.749 38.3222 163.142 36.9118 163.142 32.2813V31.7182C163.142 27.0876 161.749 25.6771 157.181 25.6771ZM160.787 32.0703C160.787 35.4265 160.045 36.2947 157.181 36.2947C154.318 36.2947 153.576 35.4265 153.576 32.0703V31.9291C153.576 28.627 154.352 27.7222 157.181 27.7222C160.045 27.7222 160.787 28.5887 160.787 31.9291V32.0703Z" fill="white"/>
<path d="M168.057 38.0766H171.974C172.87 35.456 175.334 28.5221 176.291 25.9234H173.859L172.016 31.5616C171.431 33.3999 170.987 34.8217 170.658 35.9072L170.621 36.0306H169.565L169.527 35.9078C169.4 35.4928 169.262 35.0446 169.116 34.576C168.829 33.6521 168.506 32.6048 168.203 31.5926L166.396 25.9234H163.842C164.807 28.5502 167.185 35.4281 168.057 38.0766Z" fill="white"/>
<path d="M177.92 38.0766H187.398V36.1559C185.959 36.1713 183.368 36.1713 181.629 36.1713H180.22V32.7941H181.734C183.082 32.7941 185.289 32.7941 186.353 32.8089V30.977H180.22V27.8286H181.542C183.148 27.8286 185.787 27.8286 187.084 27.8439V25.9234H177.92C177.934 26.5292 177.934 27.1961 177.934 28.0204V35.821C177.934 36.7472 177.934 37.4384 177.92 38.0766Z" fill="white"/>
<path d="M87.9573 27.9669L84.5519 25.9798C84.4555 25.9235 84.3366 25.9235 84.2401 25.9798L79.6144 28.6798V23.2813C79.6144 23.1687 79.555 23.0648 79.4586 23.0085L76.0531 21.0213C75.9492 20.9607 75.8193 21.0365 75.8193 21.1577V28.6782L71.1936 25.9797C71.0971 25.9235 70.9783 25.9235 70.8819 25.9797L67.4764 27.9669C67.3725 28.0275 67.3725 28.1791 67.4764 28.2397L73.921 31.9999L67.4764 35.7602C67.3725 35.8209 67.3725 35.9724 67.4764 36.033L70.8819 38.0202C70.9783 38.0765 71.0971 38.0765 71.1936 38.0202L75.8193 35.3217V40.7202C75.8193 40.8327 75.8788 40.9367 75.9753 40.993L79.3807 42.9787C79.4846 43.0393 79.6144 42.9635 79.6144 42.8423V35.3217L84.2401 38.0202C84.3366 38.0764 84.4555 38.0764 84.5518 38.0201L87.9573 36.033C88.0612 35.9724 88.0612 35.8208 87.9573 35.7602L81.5112 31.9999L87.9573 28.2397C88.0612 28.1791 88.0612 28.0275 87.9573 27.9669ZM79.8716 33.2584L77.7161 34.5153L75.5622 33.2584V30.7431L77.7161 29.4862L79.8716 30.7431V33.2584Z" fill="white"/>
</g>
</g>
</svg>
